<?xml version="1.0" standalone="no"?>
<!DOCTYPE svg PUBLIC "-//W3C//DTD SVG 20010904//EN"
 "http://www.w3.org/TR/2001/REC-SVG-20010904/DTD/svg10.dtd">
<svg version="1.0" xmlns="http://www.w3.org/2000/svg"
 width="1023.000000pt" height="1023.000000pt" viewBox="0 0 1023.000000 1023.000000"
 preserveAspectRatio="xMidYMid meet">
<metadata>
Created by potrace 1.14, written by Peter Selinger 2001-2017
</metadata>
<g transform="translate(0.000000,1023.000000) scale(0.100000,-0.100000)"
fill="#000000" stroke="none">
<path d="M6068 10142 c-29 -14 -54 -29 -56 -34 -2 -4 -9 -8 -15 -8 -22 0 -210
-109 -227 -131 -3 -4 -43 -36 -90 -73 -85 -66 -210 -184 -210 -198 0 -5 -4 -8
-9 -8 -11 0 -73 -55 -195 -173 -69 -67 -102 -92 -137 -103 -52 -16 -75 -52
-85 -131 -3 -26 -15 -59 -27 -74 -12 -15 -42 -57 -67 -94 -29 -42 -59 -73 -83
-86 -21 -11 -40 -26 -44 -34 -7 -21 -29 -19 -31 3 -2 32 -1 247 2 279 1 18 5
36 9 39 3 4 2 15 -4 25 -5 11 -6 19 -1 19 6 0 9 12 9 28 0 15 3 45 7 67 4 22
9 59 12 81 3 23 7 53 10 65 2 13 7 44 10 69 3 24 8 48 10 52 3 5 7 21 10 36 2
15 9 50 16 78 7 33 7 57 1 68 -8 15 -22 5 -93 -66 -45 -46 -103 -108 -129
-138 -60 -71 -102 -119 -123 -142 -10 -10 -18 -20 -18 -23 0 -3 -5 -11 -10
-18 -18 -21 -80 -116 -80 -122 0 -3 -5 -11 -10 -18 -20 -23 -99 -149 -112
-178 -7 -16 -15 -29 -19 -29 -3 0 -11 -16 -19 -35 -8 -19 -17 -35 -22 -35 -4
0 -8 -9 -8 -19 0 -11 -5 -23 -10 -26 -6 -4 -22 -30 -37 -58 -14 -29 -39 -71
-55 -94 -16 -24 -25 -43 -21 -43 4 0 3 -4 -3 -8 -16 -10 -143 -277 -158 -332
-8 -27 -15 -45 -42 -105 -10 -22 -18 -43 -19 -47 0 -3 -3 -9 -7 -13 -3 -4 -4
-19 -2 -33 5 -29 57 -186 79 -237 27 -62 64 -195 69 -244 2 -27 7 -54 10 -59
7 -12 9 -111 2 -141 -11 -48 -24 -45 -62 15 -65 103 -117 179 -128 186 -6 4
-8 8 -3 8 9 0 -58 60 -98 86 -26 18 -108 53 -140 60 -47 12 -67 15 -115 21
-69 8 -229 9 -297 1 -169 -20 -497 -132 -651 -221 -29 -18 -74 -44 -98 -58
-50 -28 -74 -44 -113 -74 -26 -21 -120 -69 -154 -79 -10 -3 -17 -13 -15 -23 4
-24 48 -63 73 -64 11 -1 25 -2 30 -3 34 -7 141 -20 148 -18 4 1 7 -2 7 -7 0
-4 11 -7 23 -6 62 7 252 -55 231 -75 -5 -5 -36 -23 -69 -41 -33 -17 -62 -35
-65 -38 -3 -4 -34 -27 -70 -51 -36 -24 -81 -54 -100 -67 -19 -14 -38 -30 -42
-36 -4 -7 -8 -9 -8 -5 0 3 -23 -15 -52 -42 -29 -27 -63 -52 -77 -55 -39 -10
-81 -44 -81 -66 0 -37 21 -44 135 -47 187 -4 289 -10 475 -28 25 -2 70 -6 100
-8 30 -2 66 -7 80 -9 52 -10 306 -99 318 -111 12 -11 11 -19 -2 -44 -9 -17
-16 -53 -16 -79 0 -48 -9 -68 -52 -114 -10 -11 -15 -19 -12 -19 4 0 2 -6 -4
-13 -8 -9 -8 -24 -1 -50 9 -32 6 -45 -29 -119 -84 -178 -85 -180 -106 -330 -3
-21 -7 -43 -8 -49 -3 -13 -29 -48 -58 -77 -8 -9 -16 -19 -16 -24 -1 -4 -3 -9
-4 -10 -1 -2 -3 -15 -4 -30 -1 -14 -15 -48 -32 -75 -93 -147 -97 -166 -53
-242 22 -38 32 -69 34 -110 5 -92 20 -129 70 -177 12 -11 27 -36 34 -55 6 -19
42 -67 81 -108 62 -65 69 -76 65 -103 -3 -17 -11 -40 -17 -52 -12 -23 -48 -61
-48 -50 0 3 -6 1 -14 -5 -12 -10 -14 -35 -9 -130 l6 -118 -34 -23 c-19 -13
-68 -51 -110 -85 -42 -33 -84 -66 -95 -73 -39 -26 -260 -183 -277 -197 -9 -8
-19 -15 -22 -15 -2 0 -28 -18 -57 -40 -29 -22 -58 -40 -65 -40 -6 0 -13 -4
-15 -8 -1 -5 -44 -37 -95 -72 -70 -48 -102 -63 -138 -68 -41 -4 -50 -2 -71 21
-13 14 -24 31 -24 37 0 22 -29 7 -46 -25 -29 -53 -40 -70 -45 -75 -14 -10
-136 -265 -145 -299 -2 -9 -15 -54 -28 -101 -34 -116 -61 -295 -47 -305 4 -2
13 17 20 43 21 71 159 329 198 370 7 7 13 18 13 23 0 6 10 20 23 33 12 12 31
35 42 51 44 61 131 136 191 164 11 5 54 30 95 56 116 74 124 79 128 76 2 -1 7
2 10 7 3 5 74 51 156 103 83 51 155 97 160 101 6 5 55 37 110 71 55 34 103 65
106 70 3 5 9 8 13 8 3 -1 31 15 62 34 45 29 62 35 87 30 67 -13 113 -12 147 5
19 9 46 20 60 23 14 3 45 24 68 47 54 50 88 52 105 8 3 -9 20 -24 37 -33 31
-16 33 -15 68 8 69 45 154 92 163 90 5 -2 9 2 9 7 0 6 6 10 14 10 15 0 52 68
60 110 2 14 5 25 6 25 2 0 3 18 4 41 2 44 -7 57 -44 62 -33 4 -54 31 -39 49 6
7 15 13 20 13 4 0 35 18 68 40 33 22 63 40 66 40 3 0 41 22 84 50 66 41 81 47
91 35 18 -22 9 -142 -16 -217 -12 -36 -20 -69 -16 -72 3 -3 0 -6 -6 -6 -6 0
-9 -7 -6 -15 4 -8 2 -15 -3 -15 -5 0 -9 -8 -10 -17 -1 -10 -7 -31 -14 -48 -7
-16 -13 -35 -14 -40 -2 -6 -19 -54 -39 -108 -20 -53 -36 -100 -36 -105 0 -5
-7 -23 -16 -41 -9 -17 -17 -37 -18 -44 -1 -7 -10 -27 -19 -44 -10 -18 -17 -34
-16 -35 0 -2 -5 -16 -11 -33 -7 -16 -19 -46 -27 -65 -8 -19 -23 -51 -34 -71
-23 -44 -25 -78 -4 -85 8 -4 13 -10 10 -14 -3 -5 4 -11 15 -15 11 -3 26 -12
33 -18 18 -17 69 -47 90 -54 9 -3 17 -9 17 -14 0 -5 6 -9 14 -9 7 0 19 -7 26
-16 8 -8 27 -22 44 -30 71 -34 126 -74 126 -91 0 -14 -107 -123 -574 -582 -80
-79 -162 -162 -182 -185 -43 -50 -180 -168 -329 -284 -60 -47 -112 -89 -115
-92 -3 -3 -39 -32 -80 -64 -41 -33 -82 -66 -90 -73 -8 -7 -37 -32 -65 -56
-109 -92 -115 -104 -94 -182 8 -28 8 -59 0 -110 -15 -102 -19 -129 -31 -245
-6 -58 -13 -112 -15 -120 -2 -8 -7 -40 -10 -70 -2 -30 -7 -66 -10 -80 -3 -14
-8 -38 -10 -53 -2 -16 -6 -40 -9 -55 -3 -15 -8 -45 -11 -66 -6 -43 -7 -42 148
-180 74 -67 80 -75 152 -223 41 -85 82 -161 90 -170 8 -8 15 -20 15 -28 0 -7
3 -15 8 -17 4 -1 29 -36 56 -75 26 -40 52 -73 56 -73 5 0 12 -9 15 -20 4 -11
11 -18 16 -15 5 4 9 2 9 -3 0 -20 268 -278 318 -306 10 -5 22 -14 28 -20 6 -6
42 -38 79 -71 38 -33 89 -79 113 -102 24 -24 46 -43 49 -43 2 0 24 -14 48 -30
24 -17 48 -30 54 -30 6 0 11 -3 11 -7 0 -8 51 -35 56 -30 2 2 -10 18 -26 37
-39 46 -123 220 -123 255 0 8 -4 15 -9 15 -4 0 -7 3 -7 8 1 4 0 10 -1 15 -1 4
-4 12 -5 17 -1 6 -4 12 -5 15 -1 3 -3 8 -5 13 -1 4 -5 14 -8 22 -9 22 -58 172
-62 191 -2 9 -13 49 -25 89 -20 67 -21 87 -16 234 12 297 15 361 21 446 5 78
8 125 20 280 5 53 14 200 19 305 4 70 62 183 144 280 10 11 31 38 47 60 43 58
244 300 295 356 14 15 40 46 58 68 45 55 263 271 273 271 4 0 11 -15 15 -34 5
-31 -13 -83 -36 -106 -3 -3 -13 -17 -23 -33 -10 -15 -26 -27 -37 -27 -22 0
-92 -68 -87 -84 8 -22 -16 -48 -115 -121 -56 -41 -97 -75 -93 -75 5 0 1 -6
-10 -13 -15 -12 -18 -31 -21 -123 -3 -93 -8 -149 -14 -149 -2 0 -10 -37 -12
-62 -1 -13 -6 -23 -10 -23 -4 0 -7 -3 -6 -7 2 -13 -39 -100 -52 -108 -17 -11
-59 -81 -64 -108 -2 -14 2 -37 10 -53 20 -38 22 -66 12 -149 -4 -38 -10 -90
-13 -114 -2 -25 -8 -47 -13 -50 -15 -10 -41 -71 -31 -71 6 0 7 -4 4 -10 -7
-11 22 -71 39 -82 6 -4 7 -8 3 -8 -4 0 -3 -10 4 -21 7 -15 8 -19 0 -15 -7 5
-8 0 -3 -14 5 -12 5 -44 2 -71 -3 -26 -3 -55 2 -63 5 -8 4 -17 -2 -21 -6 -4
-8 -11 -5 -16 4 -5 8 -47 9 -92 4 -95 18 -131 47 -124 28 7 34 -30 14 -84 -27
-71 -28 -88 -12 -113 11 -16 18 -59 21 -132 12 -234 17 -289 25 -297 7 -7 49
30 43 39 -8 11 123 253 151 279 57 54 75 86 65 120 -6 25 -5 73 2 83 2 1 3 5
4 10 4 17 29 88 35 97 3 6 6 15 6 20 2 32 19 77 34 87 10 7 21 22 26 33 12 30
16 105 6 123 -10 17 12 86 34 109 7 6 18 25 25 42 7 17 16 31 21 31 5 0 9 6 9
13 0 7 15 27 33 44 30 30 34 31 67 19 40 -14 95 -6 118 18 10 9 16 33 17 58 0
38 3 44 45 70 25 15 55 32 67 37 11 5 24 14 27 19 6 10 57 2 107 -16 40 -15
75 4 98 54 16 34 30 48 61 60 21 9 42 15 46 14 4 -1 10 4 15 12 5 7 12 13 16
14 15 1 67 24 138 60 l70 35 45 -16 c63 -23 106 -13 124 28 7 18 16 40 19 49
3 9 37 31 74 48 37 18 77 36 88 41 42 20 108 16 154 -8 48 -25 79 -23 122 7
27 19 119 40 176 40 22 0 41 8 54 23 11 12 39 43 62 68 37 41 42 52 41 90 -2
24 -3 44 -4 44 -2 0 -4 23 -5 50 -2 28 -4 50 -5 50 -11 0 -2 64 11 78 27 30
12 65 -36 88 l-43 20 -27 112 c-16 62 -37 137 -47 167 -31 88 -69 194 -75 210
-4 8 -5 18 -5 23 1 4 -2 7 -8 7 -5 0 -10 7 -10 15 0 9 -19 52 -42 98 -23 45
-42 84 -43 87 -1 14 -109 206 -119 212 -6 4 -8 8 -4 8 4 0 -2 17 -14 38 -69
119 -115 209 -115 223 0 11 20 26 51 40 86 39 179 143 192 217 1 8 5 16 7 18
5 5 140 -393 140 -413 0 -7 4 -13 9 -13 4 0 7 -3 7 -7 -1 -5 0 -11 1 -15 1 -5
3 -11 4 -15 1 -5 6 -21 13 -38 20 -54 26 -70 28 -80 8 -32 118 -382 123 -390
4 -5 7 -12 7 -15 3 -27 29 -80 39 -80 13 0 100 54 123 76 7 7 29 22 50 35 21
13 40 26 43 29 14 17 224 140 238 140 9 0 32 -20 50 -45 18 -24 64 -76 102
-115 71 -74 78 -76 140 -52 14 5 27 10 30 10 3 0 12 3 20 6 43 15 107 29 120
27 15 -2 81 -32 90 -41 3 -3 37 -22 76 -42 l72 -37 43 48 c24 26 58 63 74 83
32 36 156 174 240 266 136 149 216 210 344 263 50 20 91 35 91 32 0 -3 6 0 13
6 8 6 17 8 20 4 4 -3 7 -2 7 4 0 5 6 10 13 10 16 0 97 23 97 27 0 2 -26 14
-57 27 -32 12 -102 44 -155 70 -54 26 -98 45 -98 42 0 -3 -11 2 -25 11 -13 9
-31 16 -40 16 -8 0 -15 5 -15 12 0 6 -3 9 -6 5 -3 -3 -29 3 -58 15 -28 11
-103 38 -166 60 -63 21 -122 42 -130 45 -8 3 -17 7 -20 8 -3 1 -18 7 -35 14
-16 7 -37 14 -45 16 -8 2 -27 8 -42 14 -16 6 -28 8 -28 5 0 -7 -108 55 -130
74 -10 9 -43 35 -74 57 -30 22 -55 43 -56 48 0 4 -5 7 -11 7 -6 0 -16 6 -23
13 -7 6 -28 24 -47 39 -19 14 -44 35 -56 45 -11 10 -31 25 -43 33 -12 8 -47
40 -78 70 -51 49 -60 65 -87 145 -16 50 -30 91 -31 93 -2 4 -30 9 -140 27 -82
13 -131 20 -219 30 -16 2 -30 4 -30 5 0 1 -27 3 -61 4 -33 2 -65 5 -70 8 -5 2
-33 4 -61 4 -29 -1 -53 4 -53 9 0 7 -3 7 -8 0 -9 -12 -32 -18 -32 -7 0 4 -35
8 -78 9 -42 0 -86 2 -97 2 -11 1 -27 1 -35 1 -8 0 -71 2 -140 6 -69 3 -235 6
-370 7 -143 1 -252 6 -261 12 -15 10 -48 69 -53 97 -1 7 -10 30 -19 52 -9 21
-17 41 -17 45 0 3 -14 33 -30 66 -32 66 -37 108 -17 158 18 43 16 70 -6 73
-59 8 -113 75 -136 166 -1 4 -8 29 -16 54 -19 63 -8 84 45 84 22 0 40 5 40 10
0 6 4 10 10 10 18 0 60 43 60 62 0 23 35 54 108 95 46 26 59 30 76 21 26 -14
42 -34 60 -74 16 -37 78 -90 115 -97 14 -3 38 -18 54 -32 18 -17 41 -27 70
-30 62 -6 77 -8 170 -31 4 -1 8 -2 10 -4 9 -8 56 -13 140 -15 53 -2 105 -6
115 -11 9 -4 28 -9 42 -11 67 -11 129 -35 135 -53 8 -24 51 -52 78 -50 12 1
29 2 38 1 24 -2 75 -59 106 -120 24 -45 35 -56 75 -71 26 -10 49 -15 52 -12 4
3 6 0 6 -6 0 -7 5 -12 10 -12 17 0 96 -40 116 -59 44 -41 69 -52 88 -38 24 18
23 45 -4 100 -17 33 -36 55 -60 67 -42 21 -69 50 -74 77 -4 19 0 20 60 16 36
-2 85 -13 110 -24 58 -24 100 -25 113 0 6 10 7 22 3 26 -4 5 -1 5 6 1 6 -4 12
-3 12 3 0 5 17 8 38 7 45 -3 79 27 74 66 -2 12 26 28 56 32 40 4 58 19 67 53
5 20 2 29 -12 37 -23 13 -44 14 -60 2 -7 -5 -13 -5 -13 0 0 5 -45 9 -100 9
-55 0 -100 2 -100 5 0 3 -21 5 -48 4 -26 0 -51 2 -57 5 -5 3 -30 5 -55 6 -25
0 -52 4 -60 10 -8 5 -44 10 -80 11 -90 2 -176 28 -209 63 -19 21 -34 28 -54
25 -27 -3 -163 42 -219 72 -14 8 -32 14 -40 14 -8 0 -44 28 -81 61 -67 61 -97
81 -214 141 -35 18 -63 35 -63 39 0 12 53 27 111 32 70 6 97 20 176 89 87 75
142 102 203 99 52 -3 130 31 130 57 0 7 5 10 10 7 6 -3 10 1 10 9 0 9 4 16 9
16 16 0 113 78 131 105 10 15 20 26 24 26 8 -2 139 63 191 95 90 54 204 115
256 136 29 12 66 30 81 40 14 10 29 18 32 18 4 0 69 30 144 67 75 37 139 67
142 68 14 2 417 209 431 221 8 8 19 14 23 14 4 0 12 4 19 10 7 5 39 30 72 54
62 46 88 69 116 104 16 19 16 20 -5 30 -72 35 -165 43 -546 46 -237 3 -346 0
-396 -9 -38 -8 -72 -11 -76 -9 -3 2 -9 0 -13 -6 -4 -6 -10 -8 -15 -5 -5 3 -32
-1 -60 -9 -28 -8 -52 -15 -55 -16 -3 0 -6 0 -7 -1 -2 0 -11 -2 -20 -5 -107
-26 -148 -38 -148 -46 0 -4 -3 -7 -7 -6 -24 6 -199 -73 -252 -114 -13 -10 -30
-18 -37 -18 -8 0 -14 -4 -14 -10 0 -5 -5 -10 -11 -10 -6 0 -16 -6 -24 -12 -7
-7 -25 -22 -40 -33 -14 -11 -52 -42 -83 -70 -31 -27 -68 -58 -82 -69 -23 -19
-326 -321 -493 -492 -126 -129 -159 -153 -182 -134 -8 7 -15 16 -15 21 0 11
-62 103 -72 107 -18 8 -6 50 20 73 15 13 30 24 34 24 3 0 18 10 32 22 14 13
26 20 26 17 0 -10 93 60 137 102 24 23 43 40 43 37 0 -2 12 10 28 28 15 19 34
41 42 50 25 27 50 59 46 59 -2 0 -24 -11 -47 -25 -43 -24 -75 -33 -66 -17 3 4
54 32 114 62 59 30 111 58 114 63 3 4 36 10 73 12 56 4 76 11 115 38 53 37 91
74 91 88 0 15 -22 33 -44 37 -11 2 -35 16 -55 32 -41 32 -114 75 -153 91 -32
13 -36 27 -10 36 9 4 22 12 28 17 6 6 50 38 97 71 53 36 87 67 87 78 0 9 -5
17 -10 17 -6 0 -23 9 -39 21 -15 11 -43 21 -62 21 -19 0 -38 3 -44 7 -5 3 -12
6 -15 6 -3 1 -41 15 -86 32 -89 35 -228 74 -283 78 -20 2 -38 4 -41 5 -3 2 -9
1 -15 0 -5 -1 -54 -3 -107 -4 -96 -2 -97 -1 -84 19 7 11 16 41 20 67 6 43 5
49 -19 70 -34 29 -51 62 -59 113 -6 34 -3 47 19 79 33 49 40 97 20 135 -8 17
-21 31 -27 31 -7 0 -9 16 -5 48 12 91 24 157 27 157 1 0 3 8 5 17 2 10 19 33
39 51 38 37 44 64 27 125 -6 20 -6 44 0 65 6 17 12 40 14 50 2 10 7 28 11 40
5 12 8 27 9 32 4 44 19 96 33 111 74 82 77 91 57 155 -4 11 1 36 10 56 10 19
18 42 19 50 1 7 10 23 19 33 9 11 14 20 11 20 -3 0 1 12 9 28 8 15 23 45 35
67 11 23 34 47 53 57 44 23 80 67 71 87 -4 9 -7 25 -7 36 1 11 -2 25 -5 30
-11 17 -10 65 0 65 6 0 10 5 10 11 0 6 30 61 67 123 85 139 81 133 122 203 19
32 37 60 40 63 3 3 20 25 36 50 16 25 51 75 77 113 27 37 48 69 48 71 0 16
-37 11 -82 -12z m-2344 -3834 c6 -7 30 -44 51 -82 22 -37 45 -76 50 -86 6 -10
16 -24 22 -31 6 -8 12 -18 13 -24 1 -5 18 -37 37 -70 63 -108 145 -265 138
-265 -4 0 -3 -6 3 -12 5 -7 13 -29 18 -48 4 -19 9 -39 10 -45 1 -5 5 -23 8
-40 3 -16 8 -41 11 -55 11 -57 14 -77 20 -112 2 -21 5 -41 6 -45 7 -44 -3 -62
-59 -96 -31 -19 -69 -46 -83 -59 -13 -12 -63 -48 -109 -78 -47 -30 -87 -57
-90 -60 -3 -4 -21 -16 -41 -28 l-37 -22 -56 55 c-31 31 -56 60 -56 65 0 6 -8
11 -17 12 -10 0 -31 2 -48 4 -16 1 -34 3 -40 4 -5 1 -13 2 -17 2 -3 -1 -13 13
-22 31 -10 23 -15 64 -15 134 0 94 -6 144 -19 168 -3 5 -7 22 -9 37 -4 36 -26
78 -52 100 -23 19 -22 33 8 101 14 32 31 53 53 65 65 34 143 127 228 272 12
21 23 52 25 75 2 11 7 31 12 45 5 14 9 39 9 55 -1 18 5 33 14 37 21 9 20 9 34
-4z m1410 -118 c13 -27 22 -51 19 -54 -4 -3 -2 -6 4 -6 13 0 31 -41 25 -58 -2
-8 -31 -31 -64 -52 -51 -34 -63 -37 -84 -28 -20 9 -22 14 -11 26 6 8 11 17 9
19 -2 2 2 29 9 61 16 70 16 71 19 75 1 1 3 13 4 27 3 64 35 59 70 -10z m136
-2885 c0 -7 4 -15 8 -17 4 -1 31 -37 60 -78 48 -70 66 -93 126 -160 22 -26
122 -165 117 -165 -1 0 11 -31 28 -68 17 -38 31 -71 31 -74 0 -3 13 -34 30
-69 16 -35 27 -70 25 -77 -8 -19 -66 -41 -107 -40 -21 0 -49 9 -64 20 -22 16
-32 18 -60 9 -19 -6 -34 -14 -34 -18 0 -5 -9 -8 -20 -8 -11 0 -37 -16 -58 -35
-23 -21 -52 -36 -73 -38 -43 -6 -199 -73 -219 -95 -9 -9 -51 -71 -94 -137 -91
-140 -81 -126 -98 -129 -31 -5 -64 -19 -82 -35 -21 -18 -80 -108 -90 -137 -4
-10 -32 -38 -61 -62 -41 -32 -59 -41 -72 -35 -40 19 -101 -5 -127 -48 -12 -20
-22 -27 -28 -21 -9 9 -14 56 -7 77 1 6 -3 29 -9 52 -12 41 -11 47 19 118 8 19
16 53 24 105 11 72 17 97 24 115 5 11 20 49 35 85 17 42 36 72 55 84 52 35 69
81 58 153 -4 22 -1 33 9 37 8 3 13 10 12 16 -2 5 22 41 52 78 38 48 71 78 109
98 69 36 92 67 94 127 2 37 8 53 35 81 29 32 38 35 110 41 42 4 87 8 100 10
34 3 35 9 8 64 -34 66 -33 78 9 126 19 22 35 43 35 47 0 10 53 25 73 20 9 -2
17 -10 17 -17z"/>
</g>
</svg>
